# xmcd
#
# Track frame offsets: 
#        150
#        13021
#        27243
#        41399
#        57494
#        69444
#        70761
#        83034
#        94929
#        110930
#        125039
#        138379
#        152595
#        166743
#        183593
#
# Disc length: 2591 seconds
#
# Revision: 4
# Processed by: cddbd v1.5.2PL0 Copyright (c) Steve Scherf et al.
# Submitted via: ExactAudioCopy v0.95b4
#
DISCID=cc0a1d0f
DTITLE=De Randfichten - Eiszapfenwetter
DYEAR=2008
DGENRE=Volksmusik
TTITLE0=Eiszapfenwetter
TTITLE1=Wenn bei uns dr Ruppricht kimmt
TTITLE2=Die Heimat in der Ferne
TTITLE3=Es schneit
TTITLE4=Arzgebirgsche Weihnacht
TTITLE5=Ansage
TTITLE6=Schneeschuhpolka
TTITLE7=Neinerlaa
TTITLE8=Hohe Fichten, weisse Berge
TTITLE9=Papa, komm schnitz mor'n Bargmaa
TTITLE10=Peremett halt ei
TTITLE11=Heilig-Obnd-Lied
TTITLE12=Weihnachten ist da
TTITLE13=Winterholzmichl
TTITLE14=Glueck Auf, der Steiger kommt
EXTD=
EXTT0=
EXTT1=
EXTT2=
EXTT3=
EXTT4=
EXTT5=
EXTT6=
EXTT7=
EXTT8=
EXTT9=
EXTT10=
EXTT11=
EXTT12=
EXTT13=
EXTT14=
PLAYORDER=
